<svg xmlns="http://www.w3.org/2000/svg" width="25" height="31" viewBox="0 0 25 31" fill="none">
  <path d="M18.9679 2.62502L19.1122 2.87502H19.4009H21.25C21.891 2.87502 22.5057 3.12963 22.9589 3.58284C23.4121 4.03606 23.6667 4.65075 23.6667 5.29169V22.7917C23.6667 24.5929 22.9512 26.3204 21.6775 27.5941C20.4038 28.8678 18.6763 29.5834 16.875 29.5834H3.75004C3.1091 29.5834 2.49441 29.3287 2.0412 28.8755C1.58799 28.4223 1.33337 27.8076 1.33337 27.1667V5.29169C1.33337 4.65075 1.58799 4.03606 2.0412 3.58285C2.49441 3.12963 3.1091 2.87502 3.75004 2.87502H5.59921H5.88788L6.03222 2.62502C6.24432 2.25765 6.54939 1.95258 6.91675 1.74047C7.28412 1.52837 7.70084 1.4167 8.12504 1.41669C8.12505 1.41669 8.12505 1.41669 8.12505 1.41669H16.875C17.2992 1.4167 17.716 1.52837 18.0833 1.74047C18.4507 1.95258 18.7558 2.25765 18.9679 2.62502ZM10.4321 17.1583L8.72214 15.4483L8.72219 15.4483L8.71594 15.4423C8.34659 15.0855 7.85191 14.8881 7.33845 14.8926C6.82498 14.8971 6.3338 15.103 5.97071 15.4661C5.60762 15.8292 5.40166 16.3204 5.3972 16.8338C5.39274 17.3473 5.59013 17.842 5.94686 18.2113L5.9468 18.2114L5.95286 18.2174L8.94244 21.2085C9.13785 21.404 9.36985 21.5591 9.62521 21.6649C9.88056 21.7707 10.1543 21.8251 10.4307 21.8251C10.7071 21.8251 10.9808 21.7707 11.2361 21.6649C11.4914 21.5591 11.7234 21.404 11.9188 21.2086C11.9188 21.2086 11.9188 21.2085 11.9189 21.2085L19.0354 14.0934L19.0356 14.0932C19.2174 13.9113 19.3616 13.6953 19.4599 13.4577C19.5583 13.22 19.6089 12.9653 19.6088 12.7081C19.6087 12.4509 19.5579 12.1962 19.4594 11.9586C19.3609 11.721 19.2166 11.5051 19.0346 11.3233C18.8527 11.1415 18.6367 10.9973 18.399 10.899C18.1614 10.8006 17.9067 10.7501 17.6495 10.7501C17.3922 10.7502 17.1376 10.801 16.9 10.8995C16.6624 10.998 16.4466 11.1423 16.2648 11.3242C16.2648 11.3242 16.2647 11.3243 16.2647 11.3243L10.4321 17.1583ZM16.1901 3.33532L16.1681 3.33335H16.1459H8.85437C8.85432 3.33335 8.85426 3.33335 8.85421 3.33335C8.56658 3.3333 8.28804 3.43411 8.06707 3.61825C7.84606 3.80242 7.69666 4.05828 7.64487 4.34127L7.64072 4.36399L7.63867 4.387L7.62701 4.51825L7.62504 4.54034V4.56252V6.02069C7.62504 6.02074 7.62504 6.0208 7.62504 6.02085C7.62498 6.30848 7.7258 6.58703 7.90994 6.80799C8.09411 7.029 8.34997 7.1784 8.63296 7.23019L8.65568 7.23434L8.67869 7.23639L8.80994 7.24806L8.83203 7.25002H8.85421H16.1457C16.1458 7.25002 16.1458 7.25002 16.1459 7.25002C16.4335 7.25008 16.712 7.14926 16.933 6.96513C17.154 6.78095 17.3034 6.52509 17.3552 6.24211L17.3594 6.21938L17.3614 6.19638L17.3731 6.06513L17.375 6.04303V6.02085V4.56268C17.375 4.56263 17.375 4.56257 17.375 4.56252C17.3751 4.27489 17.2743 3.99635 17.0901 3.77538L16.706 4.09548L17.0901 3.77538C16.906 3.55438 16.6501 3.40497 16.3671 3.35319L16.3444 3.34903L16.3214 3.34698L16.1901 3.33532Z" fill="#232323"/>
  <path d="M18.9679 2.62502L19.1122 2.87502H19.4009H21.25C21.891 2.87502 22.5057 3.12963 22.9589 3.58284C23.4121 4.03606 23.6667 4.65075 23.6667 5.29169V22.7917C23.6667 24.5929 22.9512 26.3204 21.6775 27.5941C20.4038 28.8678 18.6763 29.5834 16.875 29.5834H3.75004C3.1091 29.5834 2.49441 29.3287 2.0412 28.8755C1.58799 28.4223 1.33337 27.8076 1.33337 27.1667V5.29169C1.33337 4.65075 1.58799 4.03606 2.0412 3.58285C2.49441 3.12963 3.1091 2.87502 3.75004 2.87502H5.59921H5.88788L6.03222 2.62502C6.24432 2.25765 6.54939 1.95258 6.91675 1.74047C7.28412 1.52837 7.70084 1.4167 8.12504 1.41669C8.12505 1.41669 8.12505 1.41669 8.12505 1.41669H16.875C17.2992 1.4167 17.716 1.52837 18.0833 1.74047C18.4507 1.95258 18.7558 2.25765 18.9679 2.62502ZM10.4321 17.1583L8.72214 15.4483L8.72219 15.4483L8.71594 15.4423C8.34659 15.0855 7.85191 14.8881 7.33845 14.8926C6.82498 14.8971 6.3338 15.103 5.97071 15.4661C5.60762 15.8292 5.40166 16.3204 5.3972 16.8338C5.39274 17.3473 5.59013 17.842 5.94686 18.2113L5.9468 18.2114L5.95286 18.2174L8.94244 21.2085C9.13785 21.404 9.36985 21.5591 9.62521 21.6649C9.88056 21.7707 10.1543 21.8251 10.4307 21.8251C10.7071 21.8251 10.9808 21.7707 11.2361 21.6649C11.4914 21.5591 11.7234 21.404 11.9188 21.2086C11.9188 21.2086 11.9188 21.2085 11.9189 21.2085L19.0354 14.0934L19.0356 14.0932C19.2174 13.9113 19.3616 13.6953 19.4599 13.4577C19.5583 13.22 19.6089 12.9653 19.6088 12.7081C19.6087 12.4509 19.5579 12.1962 19.4594 11.9586C19.3609 11.721 19.2166 11.5051 19.0346 11.3233C18.8527 11.1415 18.6367 10.9973 18.399 10.899C18.1614 10.8006 17.9067 10.7501 17.6495 10.7501C17.3922 10.7502 17.1376 10.801 16.9 10.8995C16.6624 10.998 16.4466 11.1423 16.2648 11.3242C16.2648 11.3242 16.2647 11.3243 16.2647 11.3243L10.4321 17.1583ZM16.1901 3.33532L16.1681 3.33335H16.1459H8.85437C8.85432 3.33335 8.85426 3.33335 8.85421 3.33335C8.56658 3.3333 8.28804 3.43411 8.06707 3.61825C7.84606 3.80242 7.69666 4.05828 7.64487 4.34127L7.64072 4.36399L7.63867 4.387L7.62701 4.51825L7.62504 4.54034V4.56252V6.02069C7.62504 6.02074 7.62504 6.0208 7.62504 6.02085C7.62498 6.30848 7.7258 6.58703 7.90994 6.80799C8.09411 7.029 8.34997 7.1784 8.63296 7.23019L8.65568 7.23434L8.67869 7.23639L8.80994 7.24806L8.83203 7.25002H8.85421H16.1457C16.1458 7.25002 16.1458 7.25002 16.1459 7.25002C16.4335 7.25008 16.712 7.14926 16.933 6.96513C17.154 6.78095 17.3034 6.52509 17.3552 6.24211L17.3594 6.21938L17.3614 6.19638L17.3731 6.06513L17.375 6.04303V6.02085V4.56268C17.375 4.56263 17.375 4.56257 17.375 4.56252C17.3751 4.27489 17.2743 3.99635 17.0901 3.77538L16.706 4.09548L17.0901 3.77538C16.906 3.55438 16.6501 3.40497 16.3671 3.35319L16.3444 3.34903L16.3214 3.34698L16.1901 3.33532Z" stroke="black"/>
  <path d="M18.9679 2.62502L19.1122 2.87502H19.4009H21.25C21.891 2.87502 22.5057 3.12963 22.9589 3.58284C23.4121 4.03606 23.6667 4.65075 23.6667 5.29169V22.7917C23.6667 24.5929 22.9512 26.3204 21.6775 27.5941C20.4038 28.8678 18.6763 29.5834 16.875 29.5834H3.75004C3.1091 29.5834 2.49441 29.3287 2.0412 28.8755C1.58799 28.4223 1.33337 27.8076 1.33337 27.1667V5.29169C1.33337 4.65075 1.58799 4.03606 2.0412 3.58285C2.49441 3.12963 3.1091 2.87502 3.75004 2.87502H5.59921H5.88788L6.03222 2.62502C6.24432 2.25765 6.54939 1.95258 6.91675 1.74047C7.28412 1.52837 7.70084 1.4167 8.12504 1.41669C8.12505 1.41669 8.12505 1.41669 8.12505 1.41669H16.875C17.2992 1.4167 17.716 1.52837 18.0833 1.74047C18.4507 1.95258 18.7558 2.25765 18.9679 2.62502ZM10.4321 17.1583L8.72214 15.4483L8.72219 15.4483L8.71594 15.4423C8.34659 15.0855 7.85191 14.8881 7.33845 14.8926C6.82498 14.8971 6.3338 15.103 5.97071 15.4661C5.60762 15.8292 5.40166 16.3204 5.3972 16.8338C5.39274 17.3473 5.59013 17.842 5.94686 18.2113L5.9468 18.2114L5.95286 18.2174L8.94244 21.2085C9.13785 21.404 9.36985 21.5591 9.62521 21.6649C9.88056 21.7707 10.1543 21.8251 10.4307 21.8251C10.7071 21.8251 10.9808 21.7707 11.2361 21.6649C11.4914 21.5591 11.7234 21.404 11.9188 21.2086C11.9188 21.2086 11.9188 21.2085 11.9189 21.2085L19.0354 14.0934L19.0356 14.0932C19.2174 13.9113 19.3616 13.6953 19.4599 13.4577C19.5583 13.22 19.6089 12.9653 19.6088 12.7081C19.6087 12.4509 19.5579 12.1962 19.4594 11.9586C19.3609 11.721 19.2166 11.5051 19.0346 11.3233C18.8527 11.1415 18.6367 10.9973 18.399 10.899C18.1614 10.8006 17.9067 10.7501 17.6495 10.7501C17.3922 10.7502 17.1376 10.801 16.9 10.8995C16.6624 10.998 16.4466 11.1423 16.2648 11.3242C16.2648 11.3242 16.2647 11.3243 16.2647 11.3243L10.4321 17.1583ZM16.1901 3.33532L16.1681 3.33335H16.1459H8.85437C8.85432 3.33335 8.85426 3.33335 8.85421 3.33335C8.56658 3.3333 8.28804 3.43411 8.06707 3.61825C7.84606 3.80242 7.69666 4.05828 7.64487 4.34127L7.64072 4.36399L7.63867 4.387L7.62701 4.51825L7.62504 4.54034V4.56252V6.02069C7.62504 6.02074 7.62504 6.0208 7.62504 6.02085C7.62498 6.30848 7.7258 6.58703 7.90994 6.80799C8.09411 7.029 8.34997 7.1784 8.63296 7.23019L8.65568 7.23434L8.67869 7.23639L8.80994 7.24806L8.83203 7.25002H8.85421H16.1457C16.1458 7.25002 16.1458 7.25002 16.1459 7.25002C16.4335 7.25008 16.712 7.14926 16.933 6.96513C17.154 6.78095 17.3034 6.52509 17.3552 6.24211L17.3594 6.21938L17.3614 6.19638L17.3731 6.06513L17.375 6.04303V6.02085V4.56268C17.375 4.56263 17.375 4.56257 17.375 4.56252C17.3751 4.27489 17.2743 3.99635 17.0901 3.77538L16.706 4.09548L17.0901 3.77538C16.906 3.55438 16.6501 3.40497 16.3671 3.35319L16.3444 3.34903L16.3214 3.34698L16.1901 3.33532Z" stroke="black" stroke-opacity="0.2"/>
</svg>